<?xml version="1.0" standalone="no"?>
<!DOCTYPE svg PUBLIC "-//W3C//DTD SVG 1.1//EN" "http://www.w3.org/Graphics/SVG/1.1/DTD/svg11.dtd" >
<svg xmlns="http://www.w3.org/2000/svg">
<metadata></metadata>
<defs>
<font id="geometric231hveunormal" horiz-adv-x="1165" >
<font-face units-per-em="2048" ascent="1638" descent="-410" />
<missing-glyph horiz-adv-x="583" />
<glyph horiz-adv-x="0" />
<glyph unicode="&#xd;" horiz-adv-x="583" />
<glyph unicode=" "  horiz-adv-x="583" />
<glyph unicode="&#x09;" horiz-adv-x="583" />
<glyph unicode="&#xa0;" horiz-adv-x="583" />
<glyph unicode="!" horiz-adv-x="653" d="M152 0v375h350v-375h-350zM152 461v1003h350v-1003h-350z" />
<glyph unicode="&#x22;" horiz-adv-x="712" d="M76 877v561h219v-561h-219zM416 877v561h223v-561h-223z" />
<glyph unicode="#" horiz-adv-x="1574" d="M23 381l86 231h270l82 230h-283l86 229h279l141 395h250l-139 -395h235l141 395h250l-139 -395h270l-86 -229h-268l-80 -230h277l-84 -231h-275l-141 -393h-250l139 393h-235l-141 -393h-250l139 393h-274zM625 610h245l82 232h-245z" />
<glyph unicode="$" d="M59 954q0 172 105.5 280.5t292.5 129.5v119h252v-121q211 -31 344 -182l-158 -238q-63 84 -186 137v-260q399 -65 399 -387q0 -174 -107.5 -286.5t-291.5 -131.5v-118h-252v122q-244 31 -379 207l160 246q88 -125 219 -162v228q-397 74 -398 417zM342 971q0 -99 115 -113 v225q-115 -10 -115 -112zM709 299q114 10 114 104t-114 107v-211z" />
<glyph unicode="%" horiz-adv-x="1763" d="M27 1020q0 160 110.5 271.5t268.5 111.5t268 -113.5t110 -269.5q0 -158 -109.5 -270.5t-268.5 -112.5q-158 0 -268.5 112.5t-110.5 270.5zM246 1022q0 -66 46 -115t114 -49q66 0 112.5 49t46.5 115t-46 114t-113 48q-68 0 -114 -48.5t-46 -113.5zM401 0l758 1380h205 l-760 -1380h-203zM981 358q0 160 109.5 271.5t267.5 111.5t269.5 -113.5t111.5 -269.5t-110.5 -268.5t-270.5 -112.5q-158 0 -267.5 112t-109.5 269zM1200 360q0 -66 46 -113.5t114 -47.5t114 47.5t46 113.5t-47.5 115t-112.5 49q-66 0 -113 -49t-47 -115z" />
<glyph unicode="&#x26;" horiz-adv-x="1327" d="M59 365q0 111 74 210q63 86 215 207q-160 197 -160 340q0 164 117 267.5t307 103.5q164 0 271.5 -96.5t107.5 -239.5q0 -100 -57 -188q-51 -76 -172 -176l100 -115l236 221l213 -229l-230 -224l193 -215l-238 -249l-196 223q-127 -121 -197 -164q-96 -61 -201 -61 q-158 0 -270.5 113.5t-112.5 271.5zM381 399q0 -33 21.5 -54t52.5 -21q39 0 176 127l-105 122q-145 -121 -145 -174zM502 1141q0 -59 96 -156q104 74 104 150q0 100 -100 100t-100 -94z" />
<glyph unicode="'" horiz-adv-x="370" d="M76 877v561h219v-561h-219z" />
<glyph unicode="(" horiz-adv-x="839" d="M147 569q0 547 304 928l348 -129q-299 -371 -299 -799q0 -425 299 -796l-348 -131q-303 381 -304 927z" />
<glyph unicode=")" horiz-adv-x="839" d="M41 -227q299 371 299 796q0 428 -299 799l348 129q303 -381 303 -928t-303 -927z" />
<glyph unicode="*" horiz-adv-x="1024" d="M193 1192l59 174l162 -45v182h194v-182l162 45l61 -174l-172 -51l111 -160l-158 -102l-100 149l-102 -149l-158 102l110 160z" />
<glyph unicode="+" horiz-adv-x="1705" d="M254 496v231h481v494h238v-494h479v-231h-479v-496h-238v496h-481z" />
<glyph unicode="," horiz-adv-x="583" d="M-4 -326l160 707h325l-174 -707h-311z" />
<glyph unicode="-" horiz-adv-x="681" d="M86 379v311h510v-311h-510z" />
<glyph unicode="." horiz-adv-x="583" d="M119 0v381h346v-381h-346z" />
<glyph unicode="/" horiz-adv-x="569" d="M-109 -190l508 1654h219l-512 -1654h-215z" />
<glyph unicode="0" d="M68 690q0 324 149 522q143 193 365 193q221 0 366 -193q152 -198 152 -522q0 -326 -146.5 -519.5t-371.5 -193.5t-367 191q-147 197 -147 522zM424 700q0 -164 45 -259t113 -95q70 0 115.5 93t45.5 253t-47 256q-45 90 -114 90q-68 0 -111 -90q-47 -96 -47 -248z" />
<glyph unicode="1" d="M223 872v357q166 41 240 151h340v-1380h-340v934q-117 -57 -240 -62z" />
<glyph unicode="2" d="M86 950q0 193 136 322t353 129q182 0 313.5 -126t131.5 -290q0 -174 -154 -389l-166 -231h342v-365h-952l496 727q88 129 88 215q0 59 -36 96t-93 37q-51 0 -89 -38t-38 -89q0 -68 96 -125l-131 -245q-141 39 -219 137t-78 235z" />
<glyph unicode="3" d="M98 215l224 219q49 -96 151 -96q53 0 88 30.5t35 73.5q0 49 -42 81t-108 32h-67v272h61q74 0 116 33t42 88q0 100 -111 101q-92 0 -159 -82l-211 215q162 219 415 219q184 0 303 -113.5t119 -286.5q0 -213 -172 -303q80 -45 126 -128t46 -175q0 -178 -124.5 -298 t-319.5 -120q-279 0 -412 238z" />
<glyph unicode="4" d="M68 285l340 1095h321l-252 -770h172v353h326v-353h76v-325h-76v-285h-326v285h-581z" />
<glyph unicode="5" d="M115 168l190 268q100 -102 201 -102q129 0 129 125q0 70 -61.5 113.5t-163.5 43.5q-76 0 -168 -26v790h798l-133 -342h-329v-125q190 -6 303.5 -122.5t113.5 -307.5q0 -221 -138 -363.5t-353 -142.5q-229 0 -389 191z" />
<glyph unicode="6" d="M94 463q0 385 481 948l347 -111q-115 -121 -258 -346q184 -10 299.5 -139t115.5 -313q0 -221 -144 -374t-360 -153q-209 0 -345 135.5t-136 352.5zM444 487q0 -61 42 -105t100 -44q57 0 98 44t41 105t-41 106.5t-98 45.5t-99.5 -44t-42.5 -108z" />
<glyph unicode="7" d="M145 0l463 1014h-463v366h920v-184l-530 -1196h-390z" />
<glyph unicode="8" d="M141 401q0 199 154 306q-152 115 -152 297q0 166 125 282.5t316 116.5q188 0 313 -117t125 -274q0 -190 -152 -305q156 -109 156 -312q0 -176 -124 -297t-318 -121q-197 0 -320 121t-123 303zM463 434q0 -53 34.5 -91t84.5 -38q51 0 87 38t36 91t-36 91t-87 38 q-49 0 -84 -37t-35 -92zM463 965q0 -53 34.5 -91t84.5 -38q51 0 87 38t36 91t-36 91t-87 38q-49 0 -84 -37t-35 -92z" />
<glyph unicode="9" d="M86 879q0 225 144.5 375.5t359.5 150.5q209 0 345 -135t136 -352q0 -381 -483 -949l-344 111q111 117 258 348q-188 14 -302 138t-114 313zM440 893q0 -61 41 -106.5t99 -45.5q59 0 100 44.5t41 107.5q0 61 -42 105t-99 44t-98.5 -44t-41.5 -105z" />
<glyph unicode=":" horiz-adv-x="583" d="M119 0v381h346v-381h-346zM119 672v381h346v-381h-346z" />
<glyph unicode=";" horiz-adv-x="583" d="M-4 -326l160 707h325l-174 -707h-311zM135 596v383h346v-383h-346z" />
<glyph unicode="&#x3c;" horiz-adv-x="1705" d="M264 494v233l1178 487v-253l-854 -351l854 -348v-254z" />
<glyph unicode="=" horiz-adv-x="1705" d="M254 272v230h1198v-230h-1198zM254 719v231h1198v-231h-1198z" />
<glyph unicode="&#x3e;" horiz-adv-x="1705" d="M264 8v254l854 348l-854 351v253l1178 -487v-233z" />
<glyph unicode="?" horiz-adv-x="786" d="M-16 1272q147 229 372 229q160 0 264.5 -106.5t104.5 -266.5q0 -94 -45 -182q-45 -74 -88 -145q-45 -78 -45 -228v-112h-352v213q0 111 47 196q29 47 58.5 94.5t29.5 82.5q0 74 -70 73q-72 0 -113 -73zM195 0v375h352v-375h-352z" />
<glyph unicode="@" horiz-adv-x="2048" d="M82 520q0 342 209 598q303 373 827 373q352 0 580 -178q270 -211 270 -549q0 -342 -256 -547q-143 -115 -330 -115q-211 0 -221 160q-109 -158 -295 -158q-332 0 -331 345q0 244 142 405.5t349 161.5q154 0 229 -123l52 92h206l-153 -610q-4 -16 -4 -33q0 -59 63 -59 q135 0 239.5 143t104.5 336q0 238 -178 389.5t-469 151.5q-299 0 -504 -146q-324 -229 -323 -631q0 -303 202.5 -482t544.5 -179q336 0 596 186l97 -135q-309 -233 -693 -233q-391 0 -643 194q-311 240 -311 643zM778 444q0 -174 133 -174q82 0 146.5 58.5t89.5 158.5 l51 209q-18 156 -160 156q-102 0 -181 -121t-79 -287z" />
<glyph unicode="A" horiz-adv-x="1435" d="M6 0l512 1464h428l484 -1464h-402l-53 164h-518l-56 -164h-395zM563 530h301l-151 494z" />
<glyph unicode="B" horiz-adv-x="1222" d="M125 0v1464h489q506 0 506 -403q0 -225 -196 -324q200 -71 200 -327q0 -410 -514 -410h-485zM504 336h78q163 0 163 125q0 141 -172 141h-69v-266zM504 893h67q170 0 170 117q0 129 -170 129h-67v-246z" />
<glyph unicode="C" horiz-adv-x="1138" d="M57 721q0 332 221.5 550t565.5 218q80 0 176 -21l20 -434q-104 45 -200 45q-174 0 -281.5 -98t-107.5 -246q0 -147 107.5 -248.5t268.5 -101.5q115 0 228 59l-29 -444q-84 -25 -195 -25q-348 0 -561 208t-213 538z" />
<glyph unicode="D" horiz-adv-x="1277" d="M123 0v1464h221q373 0 557 -114q320 -199 320 -627q0 -188 -90.5 -346t-253.5 -258q-197 -119 -533 -119h-221zM502 391q147 14 235 108.5t88 235.5q0 152 -89 250t-234 100v-694z" />
<glyph unicode="E" horiz-adv-x="1071" d="M125 0v1464h809l63 -389h-493v-149h330v-387h-330v-136h536l-102 -403h-813z" />
<glyph unicode="F" horiz-adv-x="991" d="M125 0v1464h803l59 -389h-483v-149h303v-387h-303v-539h-379z" />
<glyph unicode="G" horiz-adv-x="1417" d="M63 715q0 340 224 561q217 215 547 215q262 0 466 -139l-155 -351q-174 98 -320 99q-166 0 -272.5 -108.5t-106.5 -274.5q0 -154 98.5 -252t254.5 -98q78 0 145 26v363h379v-699q-199 -86 -477 -86q-367 0 -575 202t-208 542z" />
<glyph unicode="H" horiz-adv-x="1327" d="M125 0v1464h379v-512h319v512h379v-1464h-379v569h-319v-569h-379z" />
<glyph unicode="I" horiz-adv-x="659" d="M139 0v1464h379v-1464h-379z" />
<glyph unicode="J" horiz-adv-x="794" d="M57 4v393q29 -2 52 -2q123 0 159 62q27 47 27 192v815h381v-1007q0 -260 -96.5 -360.5t-354.5 -100.5q-66 0 -168 8z" />
<glyph unicode="K" horiz-adv-x="1236" d="M133 0v1464h379v-651l317 651h437l-355 -667l363 -797h-420l-342 780v-780h-379z" />
<glyph unicode="L" horiz-adv-x="1052" d="M125 0v1464h379v-1061h543l-119 -403h-803z" />
<glyph unicode="M" horiz-adv-x="1622" d="M53 0l185 1464h309l258 -651l262 651h301l209 -1464h-391l-82 672l-283 -678l-307 678l-70 -672h-391z" />
<glyph unicode="N" horiz-adv-x="1339" d="M125 0v1464h166l545 -641v641h378v-1464h-172l-538 635v-635h-379z" />
<glyph unicode="O" horiz-adv-x="1593" d="M55 733q0 352 258 588q199 182 482 182q287 0 483 -182q260 -240 260 -588q0 -352 -260 -590q-199 -182 -483 -182q-283 0 -482 182q-258 236 -258 590zM449 733q0 -154 99 -258t249 -104t249 105t99 257t-99.5 257.5t-248.5 105.5q-147 0 -247.5 -104.5t-100.5 -258.5z " />
<glyph unicode="P" horiz-adv-x="1204" d="M125 0v1464h381q618 0 618 -526q0 -256 -147.5 -400.5t-415.5 -144.5h-57v-393h-379zM504 760h45q196 0 196 174q0 180 -198 180h-43v-354z" />
<glyph unicode="Q" horiz-adv-x="1593" d="M55 733q0 301 195 524q215 246 545 246q287 0 483 -182q260 -240 260 -588q0 -254 -133 -444l143 -172l-299 -244l-129 168q-141 -80 -325 -80q-285 0 -482 182q-258 238 -258 590zM449 733q0 -154 99 -258t249 -104t249 105t99 257t-99.5 257.5t-248.5 105.5 q-147 0 -247.5 -104.5t-100.5 -258.5z" />
<glyph unicode="R" horiz-adv-x="1218" d="M125 0v1464h414q293 0 443.5 -119.5t150.5 -343.5q0 -131 -61.5 -226t-170.5 -132l322 -643h-416l-303 627v-627h-379zM504 776h37q209 0 209 182q0 184 -199 185h-47v-367z" />
<glyph unicode="S" horiz-adv-x="886" d="M68 1036q0 193 136 322t359 129q135 0 246 -37v-363q-98 47 -162 48q-149 0 -149 -113q0 -53 51 -102q59 -49 119 -99q174 -154 174 -375q0 -215 -143.5 -342t-405.5 -127q-104 0 -197 19l-10 403q86 -37 156 -37q66 0 104.5 34t38.5 81q0 53 -49 109q-59 55 -117 110 q-152 152 -151 340z" />
<glyph unicode="T" horiz-adv-x="980" d="M6 1094l39 370h895l41 -370h-297v-1094h-381v1094h-297z" />
<glyph unicode="U" horiz-adv-x="1218" d="M115 578v886h381v-886q0 -117 22 -166q25 -55 90 -56q63 0 90 56q23 49 23 166v886h379v-886q0 -170 -17 -256q-29 -139 -110 -228q-127 -133 -365 -133t-364 133q-84 88 -111 228q-18 88 -18 256z" />
<glyph unicode="V" horiz-adv-x="1228" d="M-16 1464h403l242 -1005l215 1005h379l-371 -1464h-463z" />
<glyph unicode="W" horiz-adv-x="1579" d="M43 1464h381l74 -682l297 695l292 -695l91 682h372l-190 -1464h-299l-266 657l-260 -657h-289z" />
<glyph unicode="X" horiz-adv-x="1275" d="M-4 0l420 739l-396 725h424l193 -409l194 409h433l-410 -729l416 -735h-432l-199 412l-201 -412h-442z" />
<glyph unicode="Y" horiz-adv-x="1142" d="M-20 1464h421l174 -440l183 440h426l-426 -825v-639h-381v657z" />
<glyph unicode="Z" horiz-adv-x="1163" d="M31 1075l67 389h1022l-473 -1063h465l-55 -401h-1006l484 1075h-504z" />
<glyph unicode="[" horiz-adv-x="839" d="M201 -270v1734h501v-317h-167v-1100h167v-317h-501z" />
<glyph unicode="\" horiz-adv-x="569" d="M-49 1464h219l506 -1654h-213z" />
<glyph unicode="]" horiz-adv-x="839" d="M137 47h168v1100h-168v317h502v-1734h-502v317z" />
<glyph unicode="^" horiz-adv-x="2048" d="M414 899l465 563h288l465 -563h-264l-344 342l-346 -342h-264z" />
<glyph unicode="_" horiz-adv-x="1024" d="M0 -244h1024v-239h-1024v239z" />
<glyph unicode="`" horiz-adv-x="1024" d="M207 1552h287l192 -368h-154z" />
<glyph unicode="a" horiz-adv-x="1011" d="M68 342q0 164 102 263.5t272 99.5q76 0 156 -43q2 10 2 30q0 68 -44 92.5t-153 24.5q-133 0 -233 -16l41 243q154 20 274 21q254 0 349 -82q88 -80 88 -295v-680h-295v72q-90 -90 -224 -90q-150 0 -242.5 100t-92.5 260zM399 365q0 -47 32 -79t77 -32t77.5 33t32.5 78 t-32.5 78.5t-77.5 33.5q-43 0 -76 -32.5t-33 -79.5z" />
<glyph unicode="b" horiz-adv-x="1214" d="M86 592v872h346v-471q102 76 244 76q213 0 349 -146t136 -386q0 -242 -153.5 -398.5t-399.5 -156.5q-272 0 -409 168q-70 84 -95 200q-18 86 -18 242zM436 526q0 -82 53.5 -137t126.5 -55q76 0 129.5 57t53.5 135t-53.5 136.5t-129.5 58.5q-74 0 -127 -56.5t-53 -138.5z " />
<glyph unicode="c" horiz-adv-x="862" d="M66 537q0 236 152.5 382t399.5 146q86 0 168 -25v-344q-94 25 -147 25q-219 0 -219 -193q0 -88 59.5 -142t161.5 -54q53 0 145 16v-340q-94 -24 -188 -24h-8q-231 0 -377.5 152.5t-146.5 400.5z" />
<glyph unicode="d" horiz-adv-x="1245" d="M47 522q0 238 147.5 391.5t366.5 153.5q143 0 240 -68v465h346v-1464h-340v96q-118 -110 -276 -110h-3q-199 0 -340 155.5t-141 380.5zM403 526q0 -78 56.5 -133t134.5 -55q80 0 135 54t55 134q0 78 -55 132.5t-135 54.5t-135.5 -54.5t-55.5 -132.5z" />
<glyph unicode="e" horiz-adv-x="1097" d="M47 514q0 233 156.5 393t384.5 160q168 0 294 -94t183 -266l-563 -396q51 -22 115 -22h6q176 0 354 157l27 -344q-184 -120 -414 -120h-4q-244 0 -391.5 148.5t-147.5 383.5zM360 569q0 -25 7 -53l319 232q-40 40 -108 40h-3q-86 0 -150.5 -66.5t-64.5 -152.5z" />
<glyph unicode="f" horiz-adv-x="638" d="M51 739v314h82v28q0 393 410 394q18 0 88 -5v-329q-12 0 -27 2h-18q-106 0 -107 -84v-6h152v-314h-152v-739h-346v739h-82z" />
<glyph unicode="g" horiz-adv-x="1069" d="M33 -170l178 254q139 -131 281 -131q68 0 109.5 35t41.5 92q0 23 -10 67q-68 -12 -127 -12q-195 0 -321 130t-126 333q0 205 132.5 337t334.5 132q72 0 140 -20h344l-107 -156q100 -147 101 -309q0 -141 -103 -267q84 -131 84 -245q0 -193 -132 -316t-341 -123 q-303 0 -479 199zM393 596q0 -55 38 -93t91 -38t92 39t39 92q0 51 -39 90t-92 39t-91 -37t-38 -92z" />
<glyph unicode="h" horiz-adv-x="1089" d="M96 0v1464h346v-506q92 111 256 111q303 0 303 -358v-711h-346v559q0 76 -14 109q-23 51 -86 51q-113 0 -113 -162v-557h-346z" />
<glyph unicode="i" horiz-adv-x="538" d="M96 0v1053h346v-1053h-346zM96 1145v319h346v-319h-346z" />
<glyph unicode="j" horiz-adv-x="538" d="M-29 -170q82 84 109 201q18 84 18 262v760h344v-891q0 -213 -41 -326q-47 -133 -176 -221zM96 1145v319h346v-319h-346z" />
<glyph unicode="k" horiz-adv-x="1071" d="M96 0v1464h346v-882l240 471h369l-263 -486l295 -567h-381l-260 537v-537h-346z" />
<glyph unicode="l" horiz-adv-x="538" d="M96 0v1464h346v-1464h-346z" />
<glyph unicode="m" horiz-adv-x="1626" d="M96 0v1053h334v-113q106 129 264 129q162 0 250 -139q121 139 295 139q301 0 301 -358v-711h-342v559q0 76 -12 109q-23 51 -86 51q-111 0 -111 -162v-557h-342v559q0 76 -12 109q-23 51 -86 51q-111 0 -111 -162v-557h-342z" />
<glyph unicode="n" horiz-adv-x="1089" d="M96 0v1053h340v-101q96 117 260 117q305 0 305 -358v-711h-346v559q0 76 -14 109q-23 51 -86 51q-113 0 -113 -162v-557h-346z" />
<glyph unicode="o" horiz-adv-x="1169" d="M47 526q0 225 156.5 385t380.5 160q223 0 379.5 -161t156.5 -384q0 -225 -155.5 -384.5t-380.5 -159.5t-381 159.5t-156 384.5zM403 526q0 -82 53.5 -137t127.5 -55q76 0 128 57t52 135q0 80 -53.5 137.5t-126.5 57.5q-74 0 -127.5 -56.5t-53.5 -138.5z" />
<glyph unicode="p" horiz-adv-x="1245" d="M96 -346v1399h340v-101q123 111 279 111q199 0 340 -156t141 -381q0 -238 -147.5 -391t-366.5 -153q-137 0 -240 67v-395h-346zM459 526q0 -78 56 -132t136 -54t135.5 54t55.5 132t-56.5 133.5t-134.5 55.5q-80 0 -136 -54.5t-56 -134.5z" />
<glyph unicode="q" horiz-adv-x="1245" d="M47 520q0 231 140.5 387t340.5 156q156 0 279 -111v101h340v-1399h-346v395q-99 -67 -236 -67h-4q-217 0 -365.5 153.5t-148.5 384.5zM403 526q0 -78 55.5 -132t135.5 -54t135 54t55 132q0 80 -55 134.5t-135 54.5q-78 0 -134.5 -55.5t-56.5 -133.5z" />
<glyph unicode="r" horiz-adv-x="722" d="M96 0v1053h346v-109q70 113 232 119v-363h-41q-190 0 -191 -198v-502h-346z" />
<glyph unicode="s" horiz-adv-x="681" d="M55 745q0 145 105.5 231.5t300.5 86.5q72 0 160 -16v-310q-61 29 -115 29q-84 0 -84 -61q0 -33 61 -95q84 -84 117 -137q47 -78 47 -174q0 -145 -95 -226t-273 -81q-61 0 -199 18v330q59 -27 102 -27q88 0 88 70q0 33 -34 70l-86 82q-94 90 -95 210z" />
<glyph unicode="t" horiz-adv-x="669" d="M61 739v314h66v112l346 201v-313h131v-314h-131v-237q0 -74 12 -101q20 -41 86 -41q37 1 62 5l-64 -365q-76 -12 -141 -12q-188 0 -250 88q-51 74 -51 282v381h-66z" />
<glyph unicode="u" horiz-adv-x="1089" d="M88 340v713h346v-559q0 -160 98 -160q115 0 115 162v557h346v-1053h-340v100q-97 -116 -257 -116h-3q-305 0 -305 356z" />
<glyph unicode="v" horiz-adv-x="952" d="M8 1053h365l106 -641l109 641h364l-258 -1053h-426z" />
<glyph unicode="w" horiz-adv-x="1433" d="M12 1053h367l98 -568l135 568h228l133 -568l100 568h357l-267 -1053h-325l-133 508l-121 -508h-316z" />
<glyph unicode="x" horiz-adv-x="1021" d="M-4 1053h420l90 -234l96 234h406l-308 -512l326 -541h-408l-108 266l-92 -266h-414l322 543z" />
<glyph unicode="y" horiz-adv-x="1034" d="M-4 1053h387l156 -518l118 518h379l-422 -1399h-385l142 387z" />
<glyph unicode="z" horiz-adv-x="909" d="M29 0l317 705h-301v348h819l-315 -703h340l-78 -350h-782z" />
<glyph unicode="{" horiz-adv-x="1024" d="M152 410v241h18q12 -2 18 -2q119 0 168.5 56.5t49.5 187.5v254q0 121 16 176q23 72 90 107q92 49 301 49h39q27 -2 41 -2v-242q-8 0 -21 2h-20q-102 0 -134 -38t-32 -144v-240q0 -135 -41 -194q-45 -66 -170 -91q125 -25 168 -86t43 -196v-242q0 -106 32 -143t132 -37h22 q14 2 21 2v-242q-14 0 -41 -2h-41q-207 0 -299 49q-68 35 -90 107q-16 53 -16 174v256q0 133 -49.5 187.5t-168.5 54.5h-18q-12 -2 -18 -2z" />
<glyph unicode="|" horiz-adv-x="1024" d="M393 -483v2048h240v-2048h-240z" />
<glyph unicode="}" horiz-adv-x="1024" d="M133 -172q8 0 23 -2h20q102 0 133 37t31 143v242q0 133 43 195.5t168 86.5q-125 25 -170 91q-41 59 -41 194v240q0 106 -30.5 144t-129.5 38h-22q-16 -2 -25 -2v242q14 0 41 2h39q207 0 301 -49q68 -35 90 -107q16 -55 17 -176v-254q0 -133 49 -188.5t168 -55.5q6 0 18 2 h18v-241q-6 0 -18 2h-18q-119 0 -168 -55.5t-49 -186.5v-256q0 -131 -21 -184q-31 -84 -131 -119q-84 -27 -246 -27h-45q-29 2 -45 2v242z" />
<glyph unicode="~" horiz-adv-x="1705" d="M178 401v254q221 143 387 144q121 0 295 -58q74 -25 148 -49q84 -25 151 -24q162 0 371 151v-254q-199 -137 -377 -137q-90 0 -172 29q-293 102 -420 102q-162 0 -383 -158z" />
<glyph unicode="&#xa2;" d="M223 600q0 379 352 500v143h252v-115q43 -4 117 -24v-342q-86 23 -147 22q-219 0 -219 -192q0 -92 65 -146q59 -49 156 -49q55 0 145 17v-340q-57 -18 -117 -19v-121h-252v140q-352 125 -352 526z" />
<glyph unicode="&#xa3;" d="M121 -12v329q104 0 150 37t46 125q0 25 -2 39h-133v334h127q-14 84 -14 158q0 180 111.5 288.5t295.5 108.5q234 0 390 -162l-150 -262q-84 137 -184 137q-123 0 -123 -119q0 -51 18 -149h316v-334h-299q-2 -84 -86 -176q80 -6 145 -6q172 0 268 94l78 -330 q-174 -113 -377 -112q-72 0 -194.5 12t-171.5 12q-74 0 -211 -24z" />
<glyph unicode="&#xa5;" d="M20 1380h396l164 -462l170 462h401l-236 -460h168v-158h-249l-84 -166h333v-156h-333v-440h-355v440h-317v156h317v22l-73 144h-244v158h166z" />
<glyph unicode="&#xa8;" horiz-adv-x="1024" d="M205 1233v270h250v-270h-250zM567 1233v270h252v-270h-252z" />
<glyph unicode="&#xa9;" horiz-adv-x="1705" d="M106 737q0 305 222 531q213 217 524 217q313 0 530 -217.5t217 -530.5t-213 -524q-227 -223 -534 -223q-305 0 -525.5 220t-220.5 527zM242 737q0 -248 181 -429t431 -181t436 182q174 172 174 428t-178 434.5t-432 178.5q-256 0 -430 -179q-182 -186 -182 -434zM446 731 q0 207 112 329t298 122q158 0 257 -80t108 -211h-213q-12 141 -156 141q-82 0 -129 -75.5t-47 -217.5q0 -285 186 -284q139 0 152 155h215q-6 -143 -107.5 -230t-263.5 -87q-190 0 -301 117.5t-111 320.5z" />
<glyph unicode="&#xab;" horiz-adv-x="1236" d="M51 528l453 461l158 -162l-297 -299l297 -299l-158 -161zM567 528l455 461l156 -162l-295 -299l295 -299l-156 -161z" />
<glyph unicode="&#xad;" horiz-adv-x="681" d="M86 379v311h510v-311h-510z" />
<glyph unicode="&#xae;" horiz-adv-x="1705" d="M106 737q0 313 228 537q213 211 518 211q317 0 539 -225q208 -214 208 -523q0 -319 -221 -530q-227 -217 -526 -217q-309 0 -530 227q-215 221 -216 520zM244 737q0 -246 174 -424q182 -186 434 -186q250 0 431 175t181 435q0 254 -172 428q-180 184 -438 185 q-252 0 -426 -172q-184 -182 -184 -441zM537 344v819h329q354 0 355 -237q0 -170 -174 -221l182 -361h-248l-154 326h-65v-326h-225zM762 803h80q147 0 147 106q0 113 -160 113h-67v-219z" />
<glyph unicode="&#xb4;" horiz-adv-x="1169" d="M453 1143l151 321h328l-223 -321h-256z" />
<glyph unicode="&#xb8;" horiz-adv-x="862" d="M193 -301q164 -45 270 -45q86 0 86 72q0 63 -119 63q-35 0 -55 -2v213h114v-84h19q229 1 229 -192q0 -209 -254 -209q-123 0 -290 47v137z" />
<glyph unicode="&#xbb;" horiz-adv-x="1236" d="M59 229l295 299l-295 299l158 162l453 -461l-453 -460zM575 229l297 299l-297 299l158 162l453 -461l-453 -460z" />
<glyph unicode="&#xd3;" horiz-adv-x="1593" d="M55 733q0 352 258 588q199 182 482 182q287 0 483 -182q260 -240 260 -588q0 -352 -260 -590q-199 -182 -483 -182q-283 0 -482 182q-258 236 -258 590zM449 733q0 -154 99 -258t249 -104t249 105t99 257t-99.5 257.5t-248.5 105.5q-147 0 -247.5 -104.5t-100.5 -258.5z M655 1573l152 321h328l-224 -321h-256z" />
<glyph unicode="&#xf3;" horiz-adv-x="1169" d="M47 526q0 225 156.5 385t380.5 160q223 0 379.5 -161t156.5 -384q0 -225 -155.5 -384.5t-380.5 -159.5t-381 159.5t-156 384.5zM403 526q0 -82 53.5 -137t127.5 -55q76 0 128 57t52 135q0 80 -53.5 137.5t-126.5 57.5q-74 0 -127.5 -56.5t-53.5 -138.5zM422 1143l151 321 h328l-223 -321h-256z" />
<glyph unicode="&#x104;" horiz-adv-x="1435" d="M6 0l512 1464h428l484 -1464h-58q-29 0 -54.5 -19.5t-25.5 -48.5q0 -41 56 -41q35 0 73 29l21 -233q-104 -33 -201 -33q-100 0 -162 43q-72 49 -71 145q0 88 88 158h-68l-53 164h-518l-56 -164h-395zM563 530h301l-151 494z" />
<glyph unicode="&#x105;" horiz-adv-x="1011" d="M68 342q0 164 102 263.5t272 99.5q76 0 156 -43q2 10 2 30q0 68 -44 92.5t-153 24.5q-133 0 -233 -16l41 243q154 20 274 21q254 0 349 -82q88 -80 88 -295v-680h-21q-29 0 -54.5 -19.5t-25.5 -48.5q0 -41 56 -41q35 0 73 29l21 -233q-104 -33 -201 -33q-100 0 -162 43 q-72 49 -71 145q0 88 90 160v70q-90 -90 -224 -90q-150 0 -242.5 100t-92.5 260zM399 365q0 -47 32 -79t77 -32t77.5 33t32.5 78t-32.5 78.5t-77.5 33.5q-43 0 -76 -32.5t-33 -79.5z" />
<glyph unicode="&#x106;" horiz-adv-x="1138" d="M57 721q0 332 221.5 550t565.5 218q80 0 176 -21l20 -434q-104 45 -200 45q-174 0 -281.5 -98t-107.5 -246q0 -147 107.5 -248.5t268.5 -101.5q115 0 228 59l-29 -444q-84 -25 -195 -25q-348 0 -561 208t-213 538zM616 1573l152 321h328l-224 -321h-256z" />
<glyph unicode="&#x107;" horiz-adv-x="862" d="M66 537q0 236 152.5 382t399.5 146q86 0 168 -25v-344q-94 25 -147 25q-219 0 -219 -193q0 -88 59.5 -142t161.5 -54q53 0 145 16v-340q-98 -25 -196 -24q-231 0 -377.5 152.5t-146.5 400.5zM418 1143l151 321h328l-223 -321h-256z" />
<glyph unicode="&#x118;" horiz-adv-x="1071" d="M125 0v1464h809l63 -389h-493v-149h330v-387h-330v-136h536l-102 -403h-45q-29 0 -54.5 -19.5t-25.5 -48.5q0 -41 55 -41q35 0 74 29l21 -233q-104 -33 -201 -33q-100 0 -162 43q-72 49 -72 145q0 88 88 158h-491z" />
<glyph unicode="&#x119;" horiz-adv-x="1097" d="M47 514q0 233 156.5 393t384.5 160q168 0 294 -94t183 -266l-563 -396q53 -23 121 -22q176 0 354 157l27 -344q-35 -18 -68 -39q-41 -25 -59 -49q-23 -33 -23 -71q0 -51 55 -52q35 0 74 29l21 -233q-104 -33 -201 -33q-100 0 -162 43q-72 49 -72 145q0 78 68 142 q-25 -2 -51 -2q-244 0 -391.5 148.5t-147.5 383.5zM360 569q0 -25 7 -53l319 232q-41 41 -111 40q-86 0 -150.5 -66.5t-64.5 -152.5z" />
<glyph unicode="&#x141;" horiz-adv-x="1099" d="M86 440v338l86 60v626h379v-465l223 142v-344l-223 -146v-248h543l-117 -403h-805v492z" />
<glyph unicode="&#x142;" horiz-adv-x="679" d="M86 631v334l82 47v452h346v-290l82 51v-334l-82 -47v-844h-346v682z" />
<glyph unicode="&#x143;" horiz-adv-x="1339" d="M125 0v1464h166l545 -641v641h378v-1464h-172l-538 635v-635h-379zM498 1573l151 321h328l-223 -321h-256z" />
<glyph unicode="&#x144;" horiz-adv-x="1089" d="M96 0v1053h340v-101q96 117 260 117q305 0 305 -358v-711h-346v559q0 76 -14 109q-23 51 -86 51q-113 0 -113 -162v-557h-346zM377 1143l151 321h328l-223 -321h-256z" />
<glyph unicode="&#x15a;" horiz-adv-x="886" d="M68 1036q0 193 136 322t359 129q135 0 246 -37v-363q-98 47 -162 48q-150 0 -149 -115q0 -51 51 -100q59 -49 119 -99q174 -154 174 -375q0 -215 -143.5 -342t-405.5 -127q-104 0 -197 19l-10 403q86 -37 156 -37q66 0 104.5 34t38.5 81q0 53 -49 109q-59 55 -117 110 q-152 152 -151 340zM395 1573l152 321h327l-223 -321h-256z" />
<glyph unicode="&#x15b;" horiz-adv-x="681" d="M55 745q0 145 105.5 231.5t300.5 86.5q72 0 160 -16v-310q-61 29 -115 29q-84 0 -84 -61q0 -33 61 -95q84 -84 117 -137q47 -78 47 -174q0 -145 -95 -226t-273 -81q-61 0 -199 18v330q59 -27 102 -27q88 0 88 70q0 33 -34 70l-86 82q-94 90 -95 210zM248 1143l151 321 h328l-223 -321h-256z" />
<glyph unicode="&#x179;" horiz-adv-x="1163" d="M31 1075l67 389h1022l-473 -1063h465l-55 -401h-1006l484 1075h-504zM436 1573l152 321h327l-223 -321h-256z" />
<glyph unicode="&#x17a;" horiz-adv-x="909" d="M29 0l317 705h-301v348h819l-315 -703h340l-78 -350h-782zM276 1143l152 321h328l-224 -321h-256z" />
<glyph unicode="&#x17b;" horiz-adv-x="1163" d="M31 1075l67 389h1022l-473 -1063h465l-55 -401h-1006l484 1075h-504zM393 1575v319h346v-319h-346z" />
<glyph unicode="&#x17c;" horiz-adv-x="909" d="M29 0l317 705h-301v348h819l-315 -703h340l-78 -350h-782zM256 1145v319h346v-319h-346z" />
<glyph unicode="&#x2c6;" horiz-adv-x="1024" d="M248 1096l192 368h256l193 -368h-154l-166 198l-168 -198h-153z" />
<glyph unicode="&#x2da;" horiz-adv-x="1024" d="M242 1436q0 115 77.5 192.5t192.5 77.5t193.5 -77.5t78.5 -192.5t-78.5 -194t-193.5 -79t-192.5 79t-77.5 194zM397 1436q0 -47 33 -81t82 -34t82 34t33 81q0 49 -34 81.5t-81 32.5t-81 -32.5t-34 -81.5z" />
<glyph unicode="&#x2dc;" horiz-adv-x="1024" d="M182 1161q55 248 215 246q37 0 90 -14l95 -27q23 -8 57 -8q66 0 88 86h119q-61 -256 -219 -256q-31 0 -76 12l-92 27q-45 12 -68 12q-63 0 -90 -78h-119z" />
<glyph unicode="&#x2000;" horiz-adv-x="947" />
<glyph unicode="&#x2001;" horiz-adv-x="1894" />
<glyph unicode="&#x2002;" horiz-adv-x="947" />
<glyph unicode="&#x2003;" horiz-adv-x="1894" />
<glyph unicode="&#x2004;" horiz-adv-x="631" />
<glyph unicode="&#x2005;" horiz-adv-x="473" />
<glyph unicode="&#x2006;" horiz-adv-x="315" />
<glyph unicode="&#x2007;" horiz-adv-x="315" />
<glyph unicode="&#x2008;" horiz-adv-x="236" />
<glyph unicode="&#x2009;" horiz-adv-x="378" />
<glyph unicode="&#x200a;" horiz-adv-x="105" />
<glyph unicode="&#x2010;" horiz-adv-x="681" d="M86 379v311h510v-311h-510z" />
<glyph unicode="&#x2011;" horiz-adv-x="681" d="M86 379v311h510v-311h-510z" />
<glyph unicode="&#x2012;" horiz-adv-x="681" d="M86 379v311h510v-311h-510z" />
<glyph unicode="&#x2013;" horiz-adv-x="1024" d="M0 422v225h1024v-225h-1024z" />
<glyph unicode="&#x2014;" horiz-adv-x="2048" d="M0 422v225h2048v-225h-2048z" />
<glyph unicode="&#x2018;" horiz-adv-x="583" d="M98 1251q0 141 115 252l266 -76q-78 -82 -78 -176t78 -176l-268 -74q-113 106 -113 250z" />
<glyph unicode="&#x2019;" horiz-adv-x="583" d="M98 1075q78 82 78 176t-78 176l267 76q114 -111 114 -252q0 -143 -112 -250z" />
<glyph unicode="&#x201a;" horiz-adv-x="583" d="M98 -150q78 82 78 177q0 94 -78 176l267 76q114 -111 114 -252q0 -143 -112 -250z" />
<glyph unicode="&#x201c;" horiz-adv-x="1026" d="M98 1251q0 141 113 252l268 -76q-80 -82 -80 -176q0 -96 80 -176l-268 -74q-113 106 -113 250zM545 1251q0 139 114 252l267 -76q-78 -78 -78 -176q0 -100 78 -176l-269 -74q-113 106 -112 250z" />
<glyph unicode="&#x201d;" horiz-adv-x="1026" d="M98 1075q78 78 78 176t-78 176l267 76q114 -113 114 -252t-112 -250zM545 1075q80 80 80 176q0 94 -80 176l268 76q113 -111 113 -252q0 -139 -113 -250z" />
<glyph unicode="&#x201e;" horiz-adv-x="1026" d="M98 -150q78 82 78 177q0 94 -78 176l267 76q114 -111 114 -252q0 -143 -112 -250zM543 -150q78 82 78 177q0 94 -78 176l266 76q113 -111 113 -252q0 -143 -113 -250z" />
<glyph unicode="&#x2026;" horiz-adv-x="2048" d="M168 0v381h346v-381h-346zM850 0v381h346v-381h-346zM1534 0v381h346v-381h-346z" />
<glyph unicode="&#x202f;" horiz-adv-x="378" />
<glyph unicode="&#x2039;" horiz-adv-x="720" d="M51 528l453 461l158 -162l-297 -299l297 -299l-158 -161z" />
<glyph unicode="&#x203a;" horiz-adv-x="720" d="M59 229l295 299l-295 299l158 162l453 -461l-453 -460z" />
<glyph unicode="&#x205f;" horiz-adv-x="473" />
<glyph unicode="&#x20ac;" horiz-adv-x="1118" d="M10 567l49 152h129q-2 20 -2 61v58h-176l49 151h140q33 262 147 416q139 188 383 188q213 0 365 -141v-375q-123 231 -303 232q-211 0 -246 -320h497l-49 -151h-456v-27q-2 -18 -2 -29q0 -12 2 -32v-31h417l-49 -152h-358q27 -317 244 -317q180 0 303 229v-373 q-137 -139 -367 -139q-449 0 -528 600h-189z" />
<glyph unicode="&#x2122;" horiz-adv-x="1705" d="M188 1337v127h502v-127h-164v-424h-174v424h-164zM797 913v551h223l113 -303l114 303h221v-551h-155v390l-146 -390h-65l-150 390v-390h-155z" />
<glyph unicode="&#x25fc;" horiz-adv-x="1054" d="M0 0v1055h1055v-1055h-1055z" />
</font>
</defs>
</svg>
